<?xml version="1.0" encoding="UTF-8"?><svg id="Layer_1" xmlns="http://www.w3.org/2000/svg" width="210mm" height="210mm" viewBox="0 0 595.28 595.28"><path d="M356.3,180c-23.86-35.79-45.97-64.18-61.84-83.55-14.99,19.63-36.59,49.09-60.3,86.18-25.94,40.57-46.16,72.21-60.21,98.97,21.41-5.92,40.48-5.62,57.02.95,14.12,5.61,22.61,14.25,30.09,21.87,8.38,8.53,15.62,15.9,30.26,19.93,3.97,1.09,39.47,10.04,62.06-12.64,13.47-13.52,18.96-34.34,14-53.05-1.75-6.62-7.63-23.04-24.31-32.47-17.6-9.96-44.88-10.92-58.25,4.9-6.64,7.85-11.21,21.38-6.44,33.88,5.49,14.41,21.44,23.52,38.77,22.17l1.41,17.95c-25.25,1.98-48.69-11.88-57-33.7-7.88-20.68.2-40.89,9.52-51.91,19.57-23.16,56.48-22.73,80.86-8.95,22.63,12.8,30.51,34.7,32.85,43.53,6.57,24.78-.76,52.4-18.65,70.36-16.52,16.58-37.23,20.65-53.58,20.65-12.52,0-22.47-2.39-26.02-3.36-19.31-5.32-29.41-15.6-38.32-24.67-7.14-7.27-13.31-13.55-23.9-17.76-16.54-6.58-37.08-4.87-61.28,5.05-4.8,11.24-8.23,21.69-10.26,31.74,23.67-10.45,44.87-12.68,63.29-6.59,15.39,5.08,23.81,14.14,31.95,22.91,8.47,9.11,16.46,17.72,33.36,24.11,22.68,8.58,45.82,8.64,65.15.17,19.01-8.33,30.53-22.69,36.85-33.28l15.46,9.22c-7.67,12.85-21.71,30.31-45.09,40.54-11.9,5.21-24.89,7.82-38.31,7.82-13.27,0-26.95-2.55-40.43-7.65-20.84-7.89-31.12-18.94-40.18-28.7-7.49-8.06-13.41-14.43-24.41-18.07-16.34-5.4-36.41-1.85-59.82,10.54,0,3.72.21,7.43.64,11.14.84,7.31,2.39,14.88,4.61,22.54,22.46-9.37,42.65-11.17,60.29-5.34,15.37,5.08,23.78,14.15,31.91,22.91,8.45,9.11,16.44,17.72,33.3,24.11,22.63,8.58,45.73,8.64,65.02.17,18.97-8.32,30.48-22.69,36.79-33.28l15.46,9.21c-7.66,12.85-21.68,30.31-45.02,40.55-11.89,5.21-24.86,7.82-38.26,7.82-13.25,0-26.92-2.55-40.37-7.65-20.81-7.89-31.07-18.94-40.12-28.7-7.48-8.06-13.39-14.43-24.36-18.06-13.68-4.53-29.98-2.75-48.67,5.24,19.52,47.19,63.13,92.93,121.72,97.88,79.17,6.68,148.3-64.29,160.6-125.9,10.44-52.29-22.32-101.44-87.86-199.74Z" style="fill:#00a174;"/></svg>