<?xml version="1.0" encoding="UTF-8"?>
<svg id="Layer_2" data-name="Layer 2" xmlns="http://www.w3.org/2000/svg" viewBox="0 0 51.02 51.02">
  <defs>
    <style>
      .cls-1 {
        fill: #00ad65;
      }

      .cls-2 {
        fill: none;
      }
    </style>
  </defs>
  <g id="Layer_1-2" data-name="Layer 1">
    <rect class="cls-2" width="51.02" height="51.02"/>
    <g>
      <path class="cls-1" d="m14.33,21.66c-1.49,1.49-1.49,3.91,0,5.4l1.08-1.08c-.89-.89-.89-2.34,0-3.24l-1.08-1.08Z"/>
      <path class="cls-1" d="m12.04,19.26c-1.36,1.36-2.11,3.17-2.11,5.1s.75,3.73,2.11,5.1l1.08-1.08c-1.07-1.08-1.67-2.5-1.67-4.02s.59-2.94,1.67-4.02l-1.08-1.08Z"/>
      <path class="cls-1" d="m10.83,18.03l-1.08-1.08c-4.08,4.08-4.08,10.73,0,14.81l1.08-1.08c-3.49-3.49-3.49-9.17,0-12.66Z"/>
      <path class="cls-1" d="m29.31,22.83c.84,0,1.53.68,1.53,1.53s-.68,1.53-1.53,1.53-1.53-.68-1.53-1.53.68-1.53,1.53-1.53m-7.63,2.29h1.53v1.53h1.53v-1.53h1.63c.34,1.31,1.53,2.29,2.94,2.29,1.68,0,3.05-1.37,3.05-3.05s-1.37-3.05-3.05-3.05c-1.42,0-2.6.98-2.94,2.29h-5.45c-.42,0-.76.34-.76.76v2.29h1.53v-1.53Z"/>
      <path class="cls-1" d="m36.96,18.25c.42,0,.76.34.76.76v4.58h-2.67c-1.47,0-2.67,1.2-2.67,2.67s1.2,2.67,2.67,2.67h2.67v.76c0,.42-.34.76-.76.76h-18.07c-.42,0-.76-.34-.76-.76v-10.68c0-.42.34-.76.76-.76h18.07Zm6.66-1.56c.07.02.14.03.21.03h4.58v-1.53h-4.47l-5.24-1.5c-.18-.05-.38-.04-.55.05l-5.94,2.97h-2.11V6.44c0-2.1-1.71-3.82-3.82-3.82H6.44c-2.1,0-3.82,1.71-3.82,3.82v38.15c0,2.1,1.71,3.82,3.82,3.82h19.84c2.1,0,3.82-1.71,3.82-3.82v-2.88h-1.53v2.88c0,1.26-1.03,2.29-2.29,2.29H6.44c-1.26,0-2.29-1.03-2.29-2.29V6.44c0-1.26,1.03-2.29,2.29-2.29h19.84c1.26,0,2.29,1.03,2.29,2.29v10.29h-9.67c-1.26,0-2.29,1.03-2.29,2.29v10.68c0,1.26,1.03,2.29,2.29,2.29h9.67v6.26h1.53v-6.26h6.87c1.26,0,2.29-1.03,2.29-2.29v-.76h3.63c.96,0,.96-.79.96-.79,0,0,0-.74-.97-.74h-7.82c-.63,0-1.14-.51-1.14-1.14s.51-1.14,1.14-1.14h4.21v-6.1c-.01-1.26-1.04-2.29-2.3-2.29h-1.35l2.95-1.47,5.06,1.44Z"/>
      <path class="cls-1" d="m14.42,8.6c0,.53.21,1.04.59,1.42.38.38.88.59,1.41.59s1.04-.21,1.41-.59c.38-.38.59-.88.59-1.42s-.21-1.04-.59-1.41c-.38-.38-.88-.59-1.41-.59s-1.04.21-1.41.59c-.38.38-.59.88-.59,1.41"/>
      <path class="cls-1" d="m20.36,8.6c0,.53.21,1.04.59,1.42.38.38.88.59,1.41.59s1.04-.21,1.41-.59.59-.88.59-1.42-.21-1.04-.59-1.41-.88-.59-1.41-.59-1.04.21-1.41.59c-.38.38-.59.88-.59,1.41"/>
      <path class="cls-1" d="m8.73,8.6c0,.53.21,1.04.59,1.42.38.38.88.59,1.41.59s1.04-.21,1.41-.59.59-.88.59-1.42-.21-1.04-.59-1.41-.88-.59-1.41-.59-1.04.21-1.41.59c-.38.38-.59.88-.59,1.41"/>
    </g>
  </g>
</svg>