<?xml version="1.0" encoding="UTF-8"?>
<svg id="Layer_2" data-name="Layer 2" xmlns="http://www.w3.org/2000/svg" viewBox="0 0 51.02 51.02">
  <defs>
    <style>
      .cls-1 {
        fill: #00ad65;
      }

      .cls-2 {
        fill: none;
      }
    </style>
  </defs>
  <g id="Layer_1-2" data-name="Layer 1">
    <g>
      <path class="cls-1" d="m14.04,45.51c-.31.66-1.1.95-1.76.64-.66-.31-.95-1.1-.64-1.76.31-.66,1.1-.95,1.76-.64.66.31.95,1.1.64,1.76"/>
      <path class="cls-1" d="m37.43,18.8l-3.86-1.8,2.19-4.68c.32-.68.02-1.49-.65-1.8l-7.12-3.33s2.98-5.7,8.73-3.03c3.38,1.57,4.91,5.56,3.39,8.96-.04.07-2.67,5.68-2.67,5.68m1.37,4.69c-.59,1.27-2.11,1.82-3.38,1.23l-8.16-3.81c-.28-.13-.62-.01-.75.27l-3.07,6.56c-.13.28,0,.62.27.75l2.11.99c.13.06.23.17.28.3.11.27-.04.61-.31.72l-4.24,1.64c-.14.05-.25.16-.31.29l-6.44,13.77c-.54,1.15-1.91,1.64-3.06,1.11-1.15-.54-1.64-1.91-1.11-3.05h0L25.84,11.76l3.76,1.76-.86,1.85c-.13.28-.01.62.27.75l8.57,4c1.27.59,1.82,2.11,1.23,3.38m-8.69.9l.35-.75,3.86,1.8-.35.75-3.86-1.8Zm4.54,4.58c-.26.55-.91.79-1.46.53l-5.1-2.39c-.55-.26-.79-.91-.53-1.46.26-.55.91-.79,1.46-.53l5.1,2.39c.55.26.79.92.53,1.46m-7.43-1.06l-.42.89c-.14-.14-.3-.27-.49-.35l-1.6-.75,2.59-5.54,2.14,1-.37.79c-1.01-.24-2.09.25-2.55,1.23-.46.98-.14,2.12.69,2.74m-.02,12.78c-.5,1.06-1.77,1.52-2.83,1.03-1.06-.5-1.52-1.77-1.03-2.83l4.89-10.46,3.86,1.8-4.89,10.46Zm13.95-27.41c1.57-3.86-.2-8.29-4.01-10.07-7.38-3.43-10.65,4.51-10.65,4.51,0,0,.36.17.5.23l7.64,3.57c.11.05.16.19.11.3l-2.19,4.68-2.55-1.19.86-1.85c.13-.28,0-.62-.27-.75l-4.78-2.23c-.16-.08-.52-.24-.52-.24,0,0-.17.39-.23.51l-15.42,33.01c-.8,1.71-.06,3.76,1.65,4.56,1.71.8,3.76.06,4.56-1.65h0l6.34-13.57,3.18-1.23-3.06,6.54c-.76,1.63-.05,3.57,1.57,4.33,1.63.76,3.57.05,4.33-1.57l4.91-10.5c1.01.24,2.09-.25,2.55-1.22s.14-2.12-.69-2.74l.39-.83c1.74.57,3.66-.22,4.46-1.92.79-1.7.16-3.68-1.39-4.65,0,0,2.61-5.67,2.71-6.03"/>
    </g>
    <rect class="cls-2" width="51.02" height="51.02"/>
  </g>
</svg>