<?xml version="1.0" encoding="UTF-8"?>
<svg id="Layer_2" data-name="Layer 2" xmlns="http://www.w3.org/2000/svg" viewBox="0 0 51.02 51.02">
  <defs>
    <style>
      .cls-1 {
        fill: #00ad65;
      }

      .cls-2 {
        fill: none;
      }
    </style>
  </defs>
  <g id="Layer_1-2" data-name="Layer 1">
    <g>
      <path class="cls-1" d="m18.8,25.37c-.02.11-.07.21-.14.3-.15.19-.28.41-.36.63-.04.09-.09.18-.17.25-.44.42-1.01.66-1.61.67l-1.55.03c-.54.01-1.07.16-1.54.43-1.52.88-2.05,2.84-1.17,4.37.43.74,1.11,1.27,1.94,1.49.82.22,1.68.11,2.42-.32.47-.27.86-.66,1.14-1.12l.8-1.33c.33-.55.85-.93,1.47-1.09.09-.02.17-.03.26-.02.21.03.43.03.63,0,.09-.01.18,0,.26.02.62.16,1.14.54,1.47,1.09l.8,1.33c.28.46.67.85,1.14,1.12.74.43,1.6.54,2.42.32.83-.22,1.51-.75,1.94-1.49.88-1.53.35-3.49-1.17-4.37-.47-.27-1-.42-1.54-.43l-1.55-.03c-.61-.01-1.18-.25-1.62-.67-.07-.07-.13-.16-.17-.25-.09-.23-.21-.44-.36-.63-.06-.08-.11-.17-.13-.27-.15-.59-.06-1.2.23-1.73l.75-1.36c.26-.47.4-1.01.4-1.55,0-1.76-1.43-3.2-3.19-3.2s-3.19,1.43-3.19,3.2c0,.54.14,1.08.4,1.55l.75,1.36c.29.52.37,1.12.24,1.7m-3.77,9.69c-.4,0-.8-.05-1.2-.16-1.19-.32-2.18-1.08-2.79-2.15-1.27-2.2-.51-5.02,1.68-6.29.67-.39,1.44-.6,2.22-.62l1.55-.03c.21,0,.4-.07.57-.19.11-.24.24-.47.39-.68.02-.2-.02-.41-.12-.59l-.75-1.36c-.38-.68-.58-1.45-.58-2.23,0-2.54,2.06-4.6,4.6-4.6s4.6,2.07,4.6,4.6c0,.78-.2,1.55-.58,2.23l-.75,1.36c-.1.18-.14.39-.12.59.15.21.28.44.39.68.16.12.36.19.57.19l1.55.03c.78.01,1.54.23,2.22.62,2.2,1.27,2.95,4.09,1.68,6.29-.62,1.07-1.61,1.83-2.8,2.15-1.19.32-2.43.15-3.49-.46-.67-.39-1.24-.95-1.64-1.62l-.8-1.33c-.11-.19-.29-.34-.5-.42-.22.02-.46.02-.68,0-.21.08-.39.22-.5.41l-.8,1.33c-.4.67-.97,1.23-1.64,1.62-.71.41-1.5.62-2.29.62"/>
      <path class="cls-1" d="m44.75,29.03c0,.22.09.44.25.6.16.16.37.25.6.25s.44-.09.6-.25c.16-.16.25-.37.25-.6s-.09-.44-.25-.59c-.16-.16-.37-.25-.6-.25s-.44.09-.6.25c-.16.16-.25.37-.25.59"/>
      <path class="cls-1" d="m47.26,24.94h-1.57v-.02h-8.05v1.72h6.16s.03,0,.05,0h3.41c.47,0,.85-.38.85-.85s-.38-.85-.85-.85"/>
      <path class="cls-1" d="m35.32,31.99c0,.22.09.44.25.6.16.16.37.25.6.25s.44-.09.6-.25c.16-.16.25-.37.25-.6s-.09-.44-.25-.59c-.16-.16-.37-.25-.6-.25s-.44.09-.6.25c-.16.16-.25.37-.25.59"/>
      <path class="cls-1" d="m42.9,31.15h-3.37c-.46,0-.84.38-.84.84s.38.84.84.84h3.37c.46,0,.84-.38.84-.84s-.38-.84-.84-.84Z"/>
      <path class="cls-1" d="m41.61,28.17h-1.57v-.02h-3.37c-.08.58-.18,1.15-.32,1.72h1.81s.03,0,.05,0h3.41c.47,0,.85-.38.85-.85s-.38-.85-.85-.85"/>
      <path class="cls-1" d="m27.65,40.75c-2.09,1-4.42,1.56-6.89,1.56-8.83,0-16-7.17-16-16,0-1.75.28-3.43.8-5h-1.76c-.47,1.59-.72,3.27-.72,5,0,9.76,7.92,17.68,17.68,17.68,2.44,0,4.77-.5,6.89-1.39v-1.85Z"/>
      <path class="cls-1" d="m10.49,15.33c.53-.7.84-1.58.84-2.53,0-.74-.43-1.76-1-2.84-.98-1.88-2.39-3.9-3.21-5.02-.82,1.12-2.24,3.14-3.21,5.02-.56,1.08-1,2.1-1,2.84,0,.95.31,1.82.84,2.53,0-.48.25-1.17.66-1.88.78-1.36,2.07-2.87,2.07-2.87.16-.19.39-.29.64-.29s.48.11.64.29c0,0,1.29,1.51,2.07,2.87.41.71.66,1.4.66,1.88m-3.37-2.87c-.39.5-.88,1.18-1.25,1.82-.23.4-.43.77-.43,1.05,0,.93.75,1.68,1.68,1.68s1.68-.75,1.68-1.68c0-.27-.2-.64-.43-1.05-.37-.64-.86-1.32-1.25-1.82Z"/>
      <path class="cls-1" d="m24.45,27.19c0,2.11-1.71,3.82-3.82,3.82s-3.82-1.71-3.82-3.82,1.71-3.82,3.82-3.82,3.82,1.71,3.82,3.82"/>
      <path class="cls-1" d="m36.5,29.21l1.64.4c.2-1.07.31-2.17.31-3.3,0-9.76-7.92-17.68-17.68-17.68-2.22,0-4.35.41-6.31,1.16v1.82c1.94-.83,4.07-1.3,6.31-1.3,8.83,0,16,7.17,16,16,0,.99-.09,1.96-.26,2.9"/>
      <path class="cls-1" d="m36.29,35.98h-1.68v2.11c0,.3-.16.58-.42.73-.26.15-.58.15-.84,0l-1.79-1.04-.85,1.48,1.8,1.05c.26.15.42.43.42.73s-.16.58-.42.73l-1.8,1.05.85,1.49,1.79-1.05c.26-.15.58-.15.84,0,.26.15.42.43.42.73v2.1h1.68v-2.1c0-.3.16-.58.42-.73.26-.15.58-.15.84,0l1.79,1.05.85-1.49-1.8-1.05c-.26-.15-.42-.43-.42-.73s.16-.58.42-.73l1.8-1.05-.85-1.48-1.79,1.04c-.26.15-.58.15-.84,0-.26-.15-.42-.43-.42-.73v-2.11Z"/>
    </g>
    <rect class="cls-2" width="51.02" height="51.02"/>
  </g>
</svg>