<?xml version="1.0" encoding="UTF-8"?>
<svg id="Layer_2" data-name="Layer 2" xmlns="http://www.w3.org/2000/svg" viewBox="0 0 51.02 51.02">
  <defs>
    <style>
      .cls-1 {
        fill: #00ad65;
      }

      .cls-2 {
        fill: none;
      }
    </style>
  </defs>
  <g id="Layer_1-2" data-name="Layer 1">
    <rect class="cls-2" width="51.02" height="51.02"/>
    <g>
      <path class="cls-1" d="m36.14,18.86c-.92,0-1.66.74-1.66,1.66s.74,1.66,1.66,1.66,1.66-.74,1.66-1.66-.74-1.66-1.66-1.66"/>
      <path class="cls-1" d="m31.44,34.85h-2.41l6.51-11.5-1.52-.86-7.25,12.81c-.15.27-.15.6,0,.87.16.27.44.43.75.43h3.91s.03.01.03.02c0,.01,0,.03-.01.04l-12.72,10,.54.69-.57-.68s-.02-.01-.02-.02l-2.73-10s0-.03,0-.02c0,0,.02-.02.03-.02h4c.32,0,.62-.18.77-.46l5.38-10c.15-.27.14-.6-.02-.86-.16-.26-.44-.43-.75-.43h-10.36s-.02,0-.02-.01c0-.01-.01-.02,0-.04L24.87,3.49l-1.52-.88-9.96,21.45c-.26.55-.21,1.19.12,1.71.33.51.89.82,1.5.82h8.9l-4.44,8.25h-3.48c-.56,0-1.07.25-1.42.71-.33.45-.44,1.01-.3,1.55l2.73,9.99c.15.58.59,1.04,1.15,1.23.18.06.37.1.57.1.4,0,.78-.13,1.1-.38l12.72-9.99c.6-.47.84-1.27.59-1.99-.25-.71-.93-1.2-1.68-1.2"/>
      <path class="cls-1" d="m32.98,3.49l-1.51-.87h-.02l-7.55,16.37c-.13.27-.11.59.05.84.16.25.44.41.74.41h8.68v-1.75h-7.3l6.91-15Z"/>
    </g>
  </g>
</svg>