<?xml version="1.0" encoding="UTF-8"?>
<svg id="Layer_2" data-name="Layer 2" xmlns="http://www.w3.org/2000/svg" viewBox="0 0 51.02 51.02">
  <defs>
    <style>
      .cls-1 {
        fill: #00ad65;
      }

      .cls-2 {
        fill: none;
      }
    </style>
  </defs>
  <g id="Layer_1-2" data-name="Layer 1">
    <rect class="cls-2" width="51.02" height="51.02"/>
    <g>
      <path class="cls-1" d="m38.68,20.43c1.84,2.71,2.9,6.58,2.9,10.77,0,6.38-3.75,11.89-9.15,14.48,1.5-2.03,1.76-4.3,1.79-4.65.07-.61.89-8.98-8.55-18.01-.33-.32-.85-.32-1.2-.01-.1.09-2.43,2.24-4.65,5.5-1.32,1.93-2.32,3.86-2.99,5.72-.85,2.36-1.15,4.64-.9,6.76.09,1.1.5,2.6,1.37,3.99-4.69-2.81-7.84-7.92-7.84-13.77,0-4.29,1.67-8.32,4.71-11.36l3.63-3.63c2.88-2.88,4.65-6.57,5.11-10.56,6.48,6.92,9.51,13.61,9.53,20.94,0,.31.16.6.43.75.27.16.6.16.87,0,2.74-1.53,4.42-3.9,4.96-6.92m4.65,10.77c0-8.02-3.3-12.18-4.72-13.6-.25-.25-1.23-1.12-1.73-1.62.25,1,.24,1.88.24,2.24,0,2.91-1.01,5.18-3,6.77-.43-7.21-3.65-13.84-10.05-20.64-.43-.45-2.67-2.85-2.67-2.85,0,0-.16,2.96-.19,3.38-.3,3.81-1.92,7.36-4.66,10.09l-3.63,3.63c-3.36,3.37-5.22,7.85-5.22,12.6,0,8.26,5.67,15.21,13.32,17.21l.58-1.86c-3.52-1.62-3.92-5.52-3.94-5.72,0-.01,0-.02,0-.03-.5-4.23,1.67-8.47,3.58-11.27,1.46-2.15,3-3.82,3.82-4.65,4.23,4.25,6.03,8.26,6.79,10.93.86,3.02.63,5.01.62,5.03,0,.02,0,.05,0,.07-.01.21-.32,4.3-4.2,5.81l.81,1.96c8.12-1.66,14.25-8.85,14.25-17.45"/>
      <path class="cls-1" d="m26.67,47.89c0,.9-.73,1.62-1.62,1.62s-1.62-.73-1.62-1.62.73-1.62,1.62-1.62,1.62.73,1.62,1.62"/>
    </g>
  </g>
</svg>