<?xml version="1.0" encoding="UTF-8"?>
<svg id="Layer_2" data-name="Layer 2" xmlns="http://www.w3.org/2000/svg" viewBox="0 0 51.02 51.02">
  <defs>
    <style>
      .cls-1 {
        fill: #00ad65;
      }

      .cls-2 {
        fill: none;
      }
    </style>
  </defs>
  <g id="Layer_1-2" data-name="Layer 1">
    <g>
      <polygon class="cls-1" points="7.73 6.6 7.73 48.91 9.48 48.91 9.48 8.35 20.91 8.35 20.91 48.91 21.01 48.91 22.66 48.91 22.76 48.91 22.76 8.35 34.2 8.35 34.2 48.91 35.95 48.91 35.95 6.6 7.73 6.6"/>
      <path class="cls-1" d="m40.7,48.91h-1.41V4.08c0-.31-.25-.56-.57-.56H4.44c-.31,0-.57.25-.57.56v44.83h-1.41V4.08c0-1.08.89-1.97,1.97-1.97h34.28c1.09,0,1.97.88,1.97,1.97v44.83Z"/>
      <path class="cls-1" d="m47.96,29.08c0,.9-.73,1.62-1.62,1.62s-1.62-.73-1.62-1.62.73-1.62,1.62-1.62,1.62.73,1.62,1.62"/>
      <polygon class="cls-1" points="44.06 26.26 48.56 26.26 46.31 22.37 44.06 26.26"/>
      <polygon class="cls-1" points="44.06 31.89 46.31 35.79 48.56 31.89 44.06 31.89"/>
    </g>
    <rect class="cls-2" width="51.02" height="51.02"/>
  </g>
</svg>