<?xml version="1.0" encoding="UTF-8"?>
<svg id="andwis_logo_suite" data-name="andwis logo suite" xmlns="http://www.w3.org/2000/svg" viewBox="0 0 1203.14 470.33">
  <defs>
    <style>
      .cls-1 {
        fill: #00af66;
      }

      .cls-2 {
        fill: #1c4220;
      }
    </style>
  </defs>
  <circle class="cls-1" cx="1038.12" cy="306.14" r="24.5"/>
  <path class="cls-2" d="m402.61,330.71v-75.43c0-6.45-.23-16.35-7.83-23.71-4.6-4.37-11.97-7.37-18.88-7.37s-14.04,2.76-18.42,6.68c-9.21,8.06-8.98,19.34-8.98,27.86v71.98h-39.83v-72.67c0-16.12.69-32.92,17.27-49.73,12.89-13.12,29.01-19.11,50.65-19.11,24.17,0,41.44,8.29,50.88,18.42,13.35,14.5,14.96,34.07,14.96,50.42v72.67h-39.83Z"/>
  <g>
    <path class="cls-2" d="m834.42,191.11h42.76v139.54h-42.76v-139.54Z"/>
    <circle class="cls-2" cx="855.8" cy="160.37" r="24.31"/>
  </g>
  <path class="cls-2" d="m567.61,315.14c-12.18,11.92-24.62,16.33-41.2,16.33s-31.36-5.44-43.54-16.33c-16.07-14.25-24.36-32.91-24.36-54.68,0-19.95,7.77-37.84,22.29-51.83,12.96-12.7,28.76-19.18,46.39-19.18s29.8,5.7,39.13,17.62v-65.64h40.94v189.25h-39.65v-15.55Zm-32.13-20.73c17.62,0,32.39-14.51,32.39-33.69s-14.77-34.99-33.95-34.99-34.47,15.81-34.47,34.47,15.03,34.21,36.02,34.21Z"/>
  <path class="cls-2" d="m929.52,287.81v1.25c0,7.53,6.02,12.8,14.55,12.8s13.55-4.26,13.55-11.79c0-11.04-10.79-10.54-27.6-15.81-23.33-7.28-34.62-19.82-34.62-40.14,0-26.34,19.32-44.91,51.43-44.91,27.85,0,45.66,15.81,47.17,41.4h-35.88c-1.51-8.78-4.77-12.54-11.79-12.54-7.78,0-12.29,4.52-12.29,11.04,0,9.28,8.28,11.54,22.08,15.31,27.6,7.53,41.4,18.06,41.4,40.39,0,27.1-21.33,46.67-53.94,46.67-30.11,0-48.68-16.31-51.43-43.66h37.38Z"/>
  <path class="cls-2" d="m824.32,191.21l-61.41,144.32-43.64-90.4-39.9,90.4-62.03-144.32h42.39l25.25,57.67,19.01-42.08-7.17-15.59h37.09l25.56,60.16,22.44-60.16h42.39Z"/>
  <path class="cls-2" d="m250.72,315.04c-12.19,11.94-24.65,16.35-41.25,16.35s-31.4-5.45-43.59-16.35c-16.09-14.27-24.39-32.95-24.39-54.75,0-19.98,7.78-37.88,22.31-51.89,12.97-12.71,28.8-19.2,46.44-19.2s29.84,5.71,39.18,17.64v-15.57h40.99v139.33h-39.7v-15.57Zm-32.17-20.76c17.64,0,32.43-14.53,32.43-33.73s-14.79-35.03-33.99-35.03-34.51,15.83-34.51,34.51,15.05,34.25,36.07,34.25Z"/>
</svg>