<?xml version="1.0" encoding="UTF-8"?>
<svg id="Layer_2" data-name="Layer 2" xmlns="http://www.w3.org/2000/svg" viewBox="0 0 1290.02 508.63">
  <defs>
    <style>
      .cls-1 {
        fill: #fff;
        stroke-width: 0px;
      }
    </style>
  </defs>
  <g id="Layer_1-2" data-name="Layer 1">
    <path class="cls-1" d="m894.61,94.28C516.26-116.07-285.27,66.04,104.02,246.75,14.38,195.22,100.14-4.9,894.61,94.28Z"/>
    <g>
      <path class="cls-1" d="m181.04,142.47l39.15.09,3.07,100.93,47.32-100.81,24.87.06,3.51,100.82,47.46-100.74,15.44.07-73.1,152.17-25.94-.06-4.17-96.53-45.27,96.42-26.24-.06-6.1-152.34Z"/>
      <path class="cls-1" d="m331.38,295.14l79.16-152.15,33.96.08,10.61,152.35-39.33-.09-2.2-34.49-48.84-.11-17.94,34.48-15.43-.07Zm40.16-47.94l41.23.09-4.47-71.68-36.77,71.58Z"/>
      <path class="cls-1" d="m486.58,156.69l2.91-13.53,119.83.27-2.91,13.53-40.67-.09-30.17,138.72-38.94-.09,30.17-138.72-40.23-.09Z"/>
      <path class="cls-1" d="m590.73,295.72l33.08-152.26,95.61.21-2.92,13.75-56.67-.13-10.46,48.21,47.8.11-2.89,13.11-47.8-.11-13.91,63.65,65.76.15-2.91,13.53-104.69-.23Z"/>
      <path class="cls-1" d="m710.99,295.99l33.08-152.26,60.35.14,11.43.66c6.02.72,10.66,1.47,13.94,2.25,3.27.78,7.04,2.31,11.32,4.57,4.27,2.27,7.65,5.8,10.12,10.6,2.47,4.8,3.55,10.09,3.23,15.88-.27,4.8-1.5,9.48-3.7,14.06-2.2,4.58-6.11,9.47-11.74,14.68-5.63,5.21-12.98,9.07-22.06,11.59l-6.99,1.25,5.77,1.28c13.77,3.98,20.3,12.32,19.6,25.01-.05.99-.11,2.05-.18,3.17-.06,1.13-.11,2.05-.15,2.75l-1.62,7.61-.99,4.86-.96,4.44-1.36,7.19c-.41,1.69-.74,3.28-.98,4.76-.24,1.48-.4,3-.49,4.55-.23,4.23.42,7.97,1.98,11.22l-40.45-.09c-.48-1.83-.79-3.39-.93-4.66-.15-1.27-.17-2.82-.07-4.65.17-3.1,1.14-8.39,2.9-15.86l3.16-12.48.9-4.02c.39-1.69.75-4.12,1.07-7.3s.49-4.83.5-4.97c.41-7.33-.91-12.41-3.93-15.24-3.02-2.83-8.37-4.25-16.03-4.27l-11.93-.03-15.99,73.38-38.82-.09Zm57.48-84.92l11.46.03c5.91.01,10.26-.33,13.04-1.03,2.78-.7,6.19-2.42,10.24-5.16,4.05-2.74,7.24-7.07,9.59-12.99,2.35-5.92,3.65-11.21,3.91-15.86.73-13.25-6.62-19.9-22.04-19.94l-14.28-.03-11.91,54.98Z"/>
      <path class="cls-1" d="m869.87,157.55l2.91-13.53,119.83.27-2.91,13.53-40.67-.09-30.17,138.72-38.94-.09,30.17-138.72-40.23-.09Z"/>
      <path class="cls-1" d="m974.02,296.58l33.08-152.26,38.94.09-33.08,152.26-38.93-.09Z"/>
      <path class="cls-1" d="m1057.18,157.97l2.91-13.53,119.83.27-2.91,13.53-40.67-.09-30.17,138.72-38.94-.09,30.17-138.72-40.23-.09Z"/>
      <path class="cls-1" d="m1161.33,297l33.08-152.26,95.61.21-2.92,13.75-56.67-.13-10.46,48.21,47.8.11-2.89,13.11-47.8-.11-13.91,63.65,65.76.15-2.91,13.53-104.69-.23Z"/>
    </g>
    <g>
      <path class="cls-1" d="m400.96,337.83h27.81c5.99,0,10.86,1.69,14.23,4.87,3.09,2.81,4.87,6.93,4.87,11.99,0,7.58-3.46,12.17-10.21,14.51v.28c7.68,2.15,13.02,7.58,13.02,16.48,0,5.43-1.69,9.83-4.87,13.11-3.46,3.56-8.9,5.71-15.83,5.71h-29.03v-66.96Zm27.72,29.4c8.15,0,12.83-4.78,12.83-12.08s-4.87-11.8-12.64-11.8h-21.63v23.88h21.44Zm.94,31.84c5.15,0,8.9-1.5,11.33-3.84,2.15-2.15,3.37-5.24,3.37-9.18,0-8.52-5.9-13.39-14.7-13.39h-22.38v26.41h22.38Z"/>
      <path class="cls-1" d="m460.14,390.55v-34.18h5.81v33.8c0,7.3,4.4,10.86,11.42,10.86,8.24,0,14.05-6.18,14.05-14.42v-30.25h5.71v48.41h-5.71v-7.12h-.19c-3.37,4.68-7.49,8.24-15.17,8.24-9.36,0-15.92-5.62-15.92-15.36Z"/>
      <path class="cls-1" d="m509.39,337.83h5.81v8.24h-5.81v-8.24Zm0,18.54h5.81v48.41h-5.81v-48.41Z"/>
      <path class="cls-1" d="m527.65,337.83h5.81v66.96h-5.81v-66.96Z"/>
      <path class="cls-1" d="m543.29,380.72c0-16.11,9.18-25.38,20.69-25.38,7.4,0,12.83,3.46,15.92,9.08h.19v-26.59h5.81v66.96h-5.81v-7.21h-.19c-3.56,5.53-8.43,8.52-15.73,8.52-13.02,0-20.88-10.49-20.88-25.38Zm37.27.09c0-11.89-5.71-20.6-16.2-20.6-9.55,0-15.08,8.52-15.08,20.6,0,11.33,4.87,20.41,15.08,20.41s16.2-8.33,16.2-20.41Z"/>
      <path class="cls-1" d="m598.16,337.83h5.81v8.24h-5.81v-8.24Zm0,18.54h5.81v48.41h-5.81v-48.41Z"/>
      <path class="cls-1" d="m616.14,356.37h5.81v7.4h.19c3.28-4.87,8.52-8.43,16.2-8.43,8.99,0,15.45,5.34,15.45,15.08v34.37h-5.81v-33.81c0-7.3-4.21-10.67-11.05-10.67-8.24,0-14.98,5.81-14.98,13.77v30.71h-5.81v-48.41Z"/>
      <path class="cls-1" d="m665.02,409.09h5.62c1.03,5.62,6.55,7.87,13.58,7.87,10.3,0,15.17-5.34,15.17-13.86v-7.68h-.28c-3.56,5.43-8.05,8.43-15.36,8.43-12.74,0-20.79-9.93-20.79-24.16,0-15.73,9.55-24.35,20.79-24.35,7.49,0,12.17,3.28,15.36,8.52h.28v-7.49h5.71v46.54c0,5.43-1.59,9.83-4.49,13.02-3.65,3.84-8.99,5.81-16.2,5.81-11.89,0-18.54-5.43-19.38-12.64Zm34.74-29.5c0-11.42-5.06-19.38-15.64-19.38-9.55,0-15.17,7.77-15.17,19.57,0,11.05,4.87,19.2,15.08,19.2,10.77,0,15.73-7.77,15.73-19.38Z"/>
      <path class="cls-1" d="m730.85,383.06h6.27c.66,11.33,8.33,17.7,20.88,17.7,9.83,0,17.14-4.96,17.14-14.05s-6.27-11.71-20.6-14.61c-12.36-2.43-21.07-6.18-21.07-17.89,0-10.67,8.99-17.7,22.38-17.7,14.89,0,22.38,8.05,23.6,19.57h-6.09c-1.12-9.46-7.87-14.33-17.42-14.33-10.21,0-16.39,4.87-16.39,12.27,0,7.96,6.18,10.39,18.17,12.64,13.02,2.53,23.79,5.71,23.79,19.76,0,11.89-9.55,19.57-23.6,19.57-17.6,0-26.31-9.93-27.06-22.94Z"/>
      <path class="cls-1" d="m789.47,380.62c0-14.51,8.71-25.38,22.1-25.38,15.54,0,20.88,12.83,20.79,26.41h-36.9c.28,10.86,5.52,19.38,16.57,19.38,8.05,0,12.27-4.31,14.14-10.86h5.62c-2.06,9.55-8.9,15.83-19.76,15.83-14.51,0-22.57-10.86-22.57-25.38Zm36.8-3.56c-.28-9.55-4.78-17.04-14.7-17.04s-14.98,7.4-16.01,17.04h30.72Z"/>
      <path class="cls-1" d="m841.91,356.37h5.81v8.99h.19c3-5.62,8.05-9.36,14.8-9.36.75,0,1.22.09,1.59.19v5.71c-3.46-.56-7.3.19-10.3,2.34-3.75,2.81-6.27,7.3-6.27,13.02v27.53h-5.81v-48.41Z"/>
      <path class="cls-1" d="m869.25,356.37h6.18l10.39,30.71c1.59,4.68,3.93,12.27,3.93,12.27h.19s2.43-7.58,4.03-12.27l10.86-30.71h5.9l-17.51,48.41h-6.84l-17.14-48.41Z"/>
      <path class="cls-1" d="m918.78,337.83h5.81v8.24h-5.81v-8.24Zm0,18.54h5.81v48.41h-5.81v-48.41Z"/>
      <path class="cls-1" d="m934.23,380.62c0-14.42,8.05-25.38,22.1-25.38,10.68,0,17.89,5.81,19.48,15.73h-5.81c-1.4-7.21-6.18-10.86-13.67-10.86-11.14,0-16.11,9.27-16.11,20.51s5.06,20.41,16.01,20.41c8.24,0,13.39-5.15,14.33-12.92h5.52c-1.12,10.96-8.33,17.89-19.85,17.89-14.14,0-22.01-10.96-22.01-25.38Z"/>
      <path class="cls-1" d="m982.55,380.62c0-14.51,8.71-25.38,22.1-25.38,15.54,0,20.88,12.83,20.79,26.41h-36.9c.28,10.86,5.53,19.38,16.58,19.38,8.05,0,12.27-4.31,14.14-10.86h5.62c-2.06,9.55-8.9,15.83-19.76,15.83-14.51,0-22.57-10.86-22.57-25.38Zm36.8-3.56c-.28-9.55-4.78-17.04-14.7-17.04s-14.98,7.4-16.01,17.04h30.71Z"/>
      <path class="cls-1" d="m1031.9,389.71h5.9c.84,8.15,6.46,11.42,14.23,11.42s12.27-3.75,12.27-9.36-3-7.12-12.92-9.36c-9.83-2.25-17.7-4.59-17.7-13.95,0-8.05,6.93-13.11,16.86-13.11,11.52,0,16.86,5.81,17.98,14.33h-5.81c-.66-6.27-4.96-9.55-12.17-9.55s-11.05,3.56-11.05,8.05c0,5.52,4.59,6.84,13.86,8.99,9.74,2.06,16.76,4.5,16.76,14.51,0,8.62-6.93,14.42-18.17,14.42-12.92,0-19.48-7.02-20.04-16.39Z"/>
    </g>
    <circle class="cls-1" cx="1170.74" cy="485.78" r="6.67"/>
    <path class="cls-1" d="m459.92,492.47v-20.55c0-1.76-.06-4.45-2.13-6.46-1.25-1.19-3.26-2.01-5.14-2.01s-3.83.75-5.02,1.82c-2.51,2.19-2.45,5.27-2.45,7.59v19.6h-10.85v-19.79c0-4.39.19-8.97,4.7-13.54,3.51-3.57,7.9-5.2,13.8-5.2,6.58,0,11.29,2.26,13.86,5.02,3.64,3.95,4.08,9.28,4.08,13.73v19.79h-10.85Z"/>
    <g>
      <path class="cls-1" d="m577.53,454.45h11.65v38.01h-11.65v-38.01Z"/>
      <circle class="cls-1" cx="583.35" cy="446.08" r="6.62"/>
    </g>
    <path class="cls-1" d="m504.86,488.23c-3.32,3.25-6.71,4.45-11.22,4.45s-8.54-1.48-11.86-4.45c-4.38-3.88-6.63-8.96-6.63-14.89,0-5.44,2.12-10.31,6.07-14.12,3.53-3.46,7.83-5.22,12.63-5.22s8.12,1.55,10.66,4.8v-17.88h11.15v51.55h-10.8v-4.24Zm-8.75-5.65c4.8,0,8.82-3.95,8.82-9.18s-4.02-9.53-9.25-9.53-9.39,4.31-9.39,9.39,4.09,9.32,9.81,9.32Z"/>
    <path class="cls-1" d="m603.43,480.79v.34c0,2.05,1.64,3.49,3.96,3.49s3.69-1.16,3.69-3.21c0-3.01-2.94-2.87-7.52-4.31-6.36-1.98-9.43-5.4-9.43-10.93,0-7.18,5.26-12.23,14.01-12.23,7.59,0,12.44,4.31,12.85,11.28h-9.77c-.41-2.39-1.3-3.42-3.21-3.42-2.12,0-3.35,1.23-3.35,3.01,0,2.53,2.26,3.14,6.01,4.17,7.52,2.05,11.28,4.92,11.28,11,0,7.38-5.81,12.71-14.69,12.71-8.2,0-13.26-4.44-14.01-11.89h10.18Z"/>
    <path class="cls-1" d="m574.78,454.48l-16.73,39.31-11.89-24.62-10.87,24.62-16.9-39.31h11.55l6.88,15.71,5.18-11.46-1.95-4.25h10.1l6.96,16.39,6.11-16.39h11.55Z"/>
    <path class="cls-1" d="m418.55,488.2c-3.32,3.25-6.71,4.45-11.24,4.45s-8.55-1.48-11.87-4.45c-4.38-3.89-6.64-8.98-6.64-14.91,0-5.44,2.12-10.32,6.08-14.13,3.53-3.46,7.84-5.23,12.65-5.23s8.13,1.55,10.67,4.81v-4.24h11.17v37.95h-10.81v-4.24Zm-8.76-5.65c4.81,0,8.83-3.96,8.83-9.19s-4.03-9.54-9.26-9.54-9.4,4.31-9.4,9.4,4.1,9.33,9.82,9.33Z"/>
    <g>
      <path class="cls-1" d="m316.47,482.31h-18.18l-3.21,9.12h-9.57l16.7-44.84h10.34l16.64,44.84h-9.57l-3.15-9.12Zm-2.44-6.87l-6.68-19.14-6.68,19.14h13.36Z"/>
      <path class="cls-1" d="m365.1,459.37c2.44,2.7,3.66,6.49,3.66,11.37v20.69h-8.99v-19.66c0-2.83-.73-5.02-2.18-6.58-1.46-1.56-3.45-2.34-5.97-2.34s-4.63.83-6.17,2.5c-1.54,1.67-2.31,4.07-2.31,7.2v18.89h-9.06v-35.59h9.06v7.13c.94-2.4,2.49-4.27,4.66-5.62,2.16-1.35,4.66-2.02,7.48-2.02,4.11,0,7.39,1.35,9.83,4.05Z"/>
    </g>
    <g>
      <path class="cls-1" d="m665.83,457.23c2.14,1.41,3.66,3.32,4.56,5.72v-7.39h8.99v35.72c0,3.3-.65,6.26-1.96,8.9-1.31,2.63-3.26,4.7-5.85,6.2-2.59,1.5-5.73,2.25-9.41,2.25-5.14,0-9.29-1.22-12.46-3.66-3.17-2.44-5.1-5.76-5.78-9.96h8.93c.51,1.8,1.51,3.2,2.99,4.21,1.48,1.01,3.37,1.51,5.69,1.51,2.66,0,4.8-.78,6.42-2.34,1.63-1.56,2.44-3.93,2.44-7.1v-7.58c-.9,2.4-2.42,4.32-4.56,5.75-2.14,1.44-4.71,2.15-7.71,2.15s-5.7-.73-8.09-2.18c-2.4-1.46-4.27-3.57-5.62-6.33s-2.02-6.01-2.02-9.73.67-6.97,2.02-9.73,3.22-4.87,5.62-6.33c2.4-1.46,5.1-2.18,8.09-2.18s5.57.71,7.71,2.12Zm-11.69,8.54c-1.71,1.84-2.57,4.37-2.57,7.58s.86,5.73,2.57,7.55c1.71,1.82,3.98,2.73,6.81,2.73s5-.93,6.78-2.79c1.78-1.86,2.67-4.36,2.67-7.48s-.89-5.69-2.67-7.55c-1.78-1.86-4.04-2.79-6.78-2.79s-5.1.92-6.81,2.76Z"/>
      <path class="cls-1" d="m701.93,457.01c2.18-1.31,4.63-1.96,7.32-1.96v9.7h-2.63c-6.64,0-9.96,3.08-9.96,9.25v17.15h-9.06v-35.59h9.06v6.81c1.33-2.27,3.08-4.06,5.27-5.36Z"/>
      <path class="cls-1" d="m740.06,457.3c2.76,1.46,4.94,3.57,6.52,6.33,1.58,2.76,2.38,6.01,2.38,9.73s-.79,6.96-2.38,9.7c-1.58,2.74-3.76,4.85-6.52,6.33-2.76,1.48-5.88,2.22-9.35,2.22s-6.58-.74-9.35-2.22c-2.76-1.48-4.94-3.59-6.52-6.33-1.58-2.74-2.38-5.97-2.38-9.7s.79-6.97,2.38-9.73c1.58-2.76,3.76-4.87,6.52-6.33,2.76-1.46,5.88-2.18,9.35-2.18s6.58.73,9.35,2.18Zm-15.77,8.32c-1.76,1.78-2.63,4.36-2.63,7.74s.88,5.96,2.63,7.74c1.76,1.78,3.9,2.67,6.42,2.67s4.67-.89,6.42-2.67c1.76-1.78,2.63-4.36,2.63-7.74s-.88-5.96-2.63-7.74c-1.76-1.78-3.9-2.67-6.42-2.67s-4.67.89-6.42,2.67Z"/>
      <path class="cls-1" d="m789.43,455.56v35.59h-9.06v-7.2c-.94,2.4-2.5,4.27-4.66,5.62-2.16,1.35-4.66,2.02-7.48,2.02-4.11,0-7.39-1.35-9.83-4.05-2.44-2.7-3.66-6.47-3.66-11.31v-20.69h8.99v19.66c0,2.83.73,5.02,2.18,6.58,1.46,1.56,3.43,2.34,5.91,2.34,2.61,0,4.69-.83,6.23-2.5,1.54-1.67,2.31-4.07,2.31-7.2v-18.89h9.06Z"/>
      <path class="cls-1" d="m827.01,457.3c2.4,1.46,4.27,3.57,5.62,6.33s2.02,6.01,2.02,9.73-.67,6.97-2.02,9.73-3.22,4.87-5.62,6.33c-2.4,1.46-5.1,2.18-8.09,2.18s-5.56-.72-7.68-2.15c-2.12-1.43-3.63-3.35-4.53-5.75v24.41h-9.06v-52.55h9.06v7.39c.9-2.4,2.41-4.3,4.53-5.72,2.12-1.41,4.68-2.12,7.68-2.12s5.7.73,8.09,2.18Zm-17.7,8.51c-1.78,1.86-2.67,4.38-2.67,7.55s.89,5.62,2.67,7.48c1.78,1.86,4.04,2.79,6.78,2.79s5.1-.91,6.81-2.73c1.71-1.82,2.57-4.34,2.57-7.55s-.86-5.74-2.57-7.58c-1.71-1.84-3.98-2.76-6.81-2.76s-5,.93-6.78,2.79Z"/>
      <path class="cls-1" d="m882.55,458.84c3.06,2.48,4.98,5.87,5.75,10.15h-9.57c-.39-1.88-1.26-3.37-2.63-4.46-1.37-1.09-3.11-1.64-5.2-1.64-2.4,0-4.4.89-6.01,2.67s-2.41,4.38-2.41,7.81.8,6.03,2.41,7.8c1.61,1.78,3.61,2.67,6.01,2.67,2.1,0,3.83-.55,5.2-1.64,1.37-1.09,2.25-2.58,2.63-4.46h9.57c-.77,4.28-2.69,7.67-5.75,10.15-3.06,2.48-6.89,3.73-11.47,3.73-3.47,0-6.55-.74-9.25-2.22s-4.8-3.59-6.3-6.33c-1.5-2.74-2.25-5.97-2.25-9.7s.75-6.97,2.25-9.73c1.5-2.76,3.6-4.87,6.3-6.33,2.7-1.46,5.78-2.18,9.25-2.18,4.58,0,8.4,1.24,11.47,3.73Z"/>
      <path class="cls-1" d="m920.52,457.3c2.76,1.46,4.94,3.57,6.52,6.33s2.38,6.01,2.38,9.73-.79,6.96-2.38,9.7c-1.58,2.74-3.76,4.85-6.52,6.33-2.76,1.48-5.88,2.22-9.35,2.22s-6.59-.74-9.35-2.22-4.94-3.59-6.52-6.33c-1.58-2.74-2.38-5.97-2.38-9.7s.79-6.97,2.38-9.73,3.76-4.87,6.52-6.33c2.76-1.46,5.88-2.18,9.35-2.18s6.58.73,9.35,2.18Zm-15.77,8.32c-1.76,1.78-2.63,4.36-2.63,7.74s.88,5.96,2.63,7.74c1.75,1.78,3.9,2.67,6.42,2.67s4.67-.89,6.42-2.67,2.63-4.36,2.63-7.74-.88-5.96-2.63-7.74-3.9-2.67-6.42-2.67-4.67.89-6.42,2.67Z"/>
      <path class="cls-1" d="m991.38,459.06c2.51,2.68,3.76,6.48,3.76,11.4v20.69h-8.99v-19.66c0-2.74-.7-4.85-2.09-6.33-1.39-1.48-3.31-2.22-5.75-2.22s-4.54.79-6.04,2.38c-1.5,1.59-2.25,3.9-2.25,6.94v18.89h-8.99v-19.66c0-2.74-.7-4.85-2.09-6.33-1.39-1.48-3.31-2.22-5.75-2.22s-4.54.79-6.04,2.38c-1.5,1.59-2.25,3.9-2.25,6.94v18.89h-9.06v-35.59h9.06v6.75c.94-2.31,2.43-4.1,4.46-5.36,2.03-1.26,4.4-1.9,7.1-1.9,2.87,0,5.36.69,7.48,2.06,2.12,1.37,3.71,3.34,4.79,5.91,1.11-2.44,2.77-4.38,4.98-5.81,2.21-1.43,4.68-2.15,7.42-2.15,4.33,0,7.74,1.34,10.25,4.01Z"/>
      <path class="cls-1" d="m1032.46,457.3c2.4,1.46,4.27,3.57,5.62,6.33,1.35,2.76,2.02,6.01,2.02,9.73s-.67,6.97-2.02,9.73c-1.35,2.76-3.22,4.87-5.62,6.33-2.4,1.46-5.1,2.18-8.09,2.18s-5.56-.72-7.68-2.15c-2.12-1.43-3.63-3.35-4.53-5.75v24.41h-9.06v-52.55h9.06v7.39c.9-2.4,2.41-4.3,4.53-5.72,2.12-1.41,4.68-2.12,7.68-2.12s5.7.73,8.09,2.18Zm-17.7,8.51c-1.78,1.86-2.67,4.38-2.67,7.55s.89,5.62,2.67,7.48c1.78,1.86,4.04,2.79,6.78,2.79s5.1-.91,6.81-2.73c1.71-1.82,2.57-4.34,2.57-7.55s-.86-5.74-2.57-7.58c-1.71-1.84-3.98-2.76-6.81-2.76s-5,.93-6.78,2.79Z"/>
      <path class="cls-1" d="m1068.18,457.23c2.14,1.41,3.66,3.32,4.56,5.72v-7.39h8.99v35.59h-8.99v-7.45c-.9,2.4-2.42,4.32-4.56,5.75-2.14,1.44-4.71,2.15-7.71,2.15s-5.7-.73-8.09-2.18c-2.4-1.46-4.27-3.57-5.62-6.33-1.35-2.76-2.02-6.01-2.02-9.73s.67-6.97,2.02-9.73c1.35-2.76,3.22-4.87,5.62-6.33,2.4-1.46,5.1-2.18,8.09-2.18s5.57.71,7.71,2.12Zm-11.69,8.54c-1.71,1.84-2.57,4.37-2.57,7.58s.86,5.73,2.57,7.55c1.71,1.82,3.98,2.73,6.81,2.73s5-.93,6.78-2.79c1.78-1.86,2.67-4.36,2.67-7.48s-.89-5.69-2.67-7.55-4.04-2.79-6.78-2.79-5.1.92-6.81,2.76Z"/>
      <path class="cls-1" d="m1120.99,459.09c2.44,2.7,3.66,6.49,3.66,11.37v20.69h-8.99v-19.66c0-2.83-.73-5.02-2.18-6.58s-3.45-2.34-5.97-2.34-4.63.83-6.17,2.5c-1.54,1.67-2.31,4.07-2.31,7.2v18.89h-9.06v-35.59h9.06v7.13c.94-2.4,2.49-4.27,4.66-5.62,2.16-1.35,4.66-2.02,7.48-2.02,4.11,0,7.39,1.35,9.83,4.05Z"/>
      <path class="cls-1" d="m1138.72,455.56l9.7,24.16,8.99-24.16h9.96l-21.78,52.55h-10.02l8.03-17.99-14.97-34.56h10.09Z"/>
    </g>
  </g>
</svg>