<?xml version="1.0" encoding="UTF-8"?>
<svg id="Layer_2" data-name="Layer 2" xmlns="http://www.w3.org/2000/svg" viewBox="0 0 1698.01 509.33">
  <defs>
    <style>
      .cls-1, .cls-2 {
        fill: #fff;
      }

      .cls-2 {
        opacity: .55;
      }
    </style>
  </defs>
  <g id="Layer_1-2" data-name="Layer 1">
    <g>
      <g>
        <path class="cls-1" d="M166.05,145.58c-5.41,19.31-11.58,26.26-23.56,26.26-12.74,0-21.24-9.65-24.71-28.58l-15.83-83.41-18.15,89.2c-3.09,15.45-10.04,22.78-21.63,22.78-10.81,0-16.22-5.79-20.47-20.85L0,4.25h35.53l25.87,107.74,17.76-88.43C82.25,7.34,89.97,0,102.33,0s20.08,7.72,22.78,23.17l17.38,91.52L166.05,4.25h37.84l-37.84,141.33Z"/>
        <path class="cls-1" d="M381.14,115.85c-11.97,33.6-43.25,55.61-78.78,55.61-45.95,0-84.57-39-84.57-84.95S255.64,1.93,301.98,1.93c23.94,0,45.18,9.27,61.4,26.26,12.36,13.13,20.47,30.89,20.47,44.79,0,9.65-3.86,17.76-10.81,23.17-7.34,5.41-12.36,6.56-30.89,6.56h-84.18c6.95,19.31,24.33,31.66,45.18,31.66,15.45,0,27.8-6.18,37.84-18.53h40.16ZM346.78,69.12c-6.18-18.15-23.56-30.12-43.64-30.12s-36.69,11.2-44.41,30.12h88.04Z"/>
        <path class="cls-1" d="M510.51,46.34c-12.74-7.72-27.8-11.97-41.32-11.97-15.45,0-25.1,6.56-25.1,17.38,0,5.02,2.7,8.49,8.11,10.81q5.41,2.32,25.87,8.11c14.29,4.25,22.4,8.11,28.19,13.9,8.88,8.11,13.9,20.47,13.9,33.6,0,32.44-25.1,54.45-61.78,54.45-16.6,0-31.28-3.09-49.04-9.65v-38.62c19.69,9.27,36.69,13.9,49.81,13.9,15.45,0,24.33-6.18,24.33-16.6,0-9.65-4.25-12.74-27.8-19.31-33.6-9.27-48.27-23.94-48.27-49.04,0-30.51,25.1-52.52,59.85-52.52,14.29,0,25.87,1.93,43.25,7.72v37.84Z"/>
        <path class="cls-1" d="M650.68,46.34c-12.74-7.72-27.8-11.97-41.32-11.97-15.45,0-25.1,6.56-25.1,17.38,0,5.02,2.7,8.49,8.11,10.81q5.41,2.32,25.87,8.11c14.29,4.25,22.4,8.11,28.19,13.9,8.88,8.11,13.9,20.47,13.9,33.6,0,32.44-25.1,54.45-61.78,54.45-16.6,0-31.28-3.09-49.04-9.65v-38.62c19.69,9.27,36.69,13.9,49.81,13.9,15.45,0,24.33-6.18,24.33-16.6,0-9.65-4.25-12.74-27.8-19.31-33.6-9.27-48.27-23.94-48.27-49.04,0-30.51,25.1-52.52,59.85-52.52,14.29,0,25.87,1.93,43.25,7.72v37.84Z"/>
        <path class="cls-1" d="M848.01,115.85c-11.97,33.6-43.25,55.61-78.77,55.61-45.95,0-84.57-39-84.57-84.95S722.51,1.93,768.85,1.93c23.94,0,45.18,9.27,61.4,26.26,12.36,13.13,20.47,30.89,20.47,44.79,0,9.65-3.86,17.76-10.81,23.17-7.34,5.41-12.36,6.56-30.89,6.56h-84.18c6.95,19.31,24.33,31.66,45.18,31.66,15.45,0,27.8-6.18,37.84-18.53h40.16ZM813.64,69.12c-6.18-18.15-23.56-30.12-43.64-30.12s-36.69,11.2-44.41,30.12h88.04Z"/>
        <path class="cls-1" d="M956.92,169.14l-28.96-52.13-26.26,52.13h-41.71l46.72-84.95-46.72-79.93h41.71l26.26,46.34,23.17-46.34h44.02l-45.18,79.93,48.66,84.95h-41.71Z"/>
        <path class="cls-2" d="M1183.21,169.14v-100.01c0-19.69-7.34-30.12-21.24-30.12-14.67,0-22.4,10.43-22.4,29.35v100.79h-37.84v-100.01c0-20.85-6.95-30.12-22.01-30.12s-21.63,9.65-21.63,28.19v101.94h-37.84v-98.08c0-22.4,1.93-31.28,9.27-42.86,10.43-16.6,28.58-26.26,49.43-26.26,16.61,0,29.35,5.02,41.32,15.83,9.65-10.04,24.33-15.83,41.32-15.83,20.47,0,38.62,9.27,49.43,25.1,7.34,11.2,10.04,22.01,10.04,43.25v98.86h-37.84Z"/>
        <path class="cls-2" d="M1414.91,115.85c-11.97,33.6-43.25,55.61-78.78,55.61-45.95,0-84.57-39-84.57-84.95S1289.41,1.93,1335.75,1.93c23.94,0,45.18,9.27,61.4,26.26,12.36,13.13,20.47,30.89,20.47,44.79,0,9.65-3.86,17.76-10.81,23.17-7.34,5.41-12.36,6.56-30.89,6.56h-84.18c6.95,19.31,24.33,31.66,45.18,31.66,15.45,0,27.8-6.18,37.84-18.53h40.16ZM1380.54,69.12c-6.18-18.15-23.55-30.12-43.64-30.12s-36.68,11.2-44.41,30.12h88.04Z"/>
      </g>
      <g>
        <polygon class="cls-1" points="1530.49 .18 1344.57 355.86 1479.67 355.86 1665.59 .18 1530.49 .18"/>
        <polygon class="cls-1" points="1517.44 355.86 1698.01 355.86 1698.01 10.44 1517.44 355.86"/>
        <g>
          <path class="cls-1" d="M974.99,281.62c0-6.24-3.4-10.21-11.77-10.21h-9.93v20.64h10c8.09,0,11.7-4.4,11.7-10.42Z"/>
          <polygon class="cls-1" points="590.41 300.9 609.99 300.9 600.2 274.1 590.41 300.9"/>
          <path class="cls-1" d="M8.77,229.11v126.75h1297.59l66.26-126.75H8.77ZM261.72,316.79h-4.96v-39.07l-17.44,39.07h-3.62l-17.44-38.93v38.93h-4.96v-48.93h5.24l18.94,42.4,18.94-42.4h5.32v48.93ZM299.55,271.26h-20.91v18.51h18.79v4.11h-18.79v18.79h20.91v4.11h-25.88v-49.64h25.88v4.11ZM332.01,312.89c8.43,0,14.26-4.11,17.02-10.57h5.81c-3.54,9.36-11.77,14.89-22.83,14.89-13.75,0-24.26-10.35-24.26-25.24s10.5-25.32,24.26-25.32c11.06,0,19.29,5.53,22.83,15.03h-5.81c-2.76-6.6-8.58-10.71-17.02-10.71-10.85,0-19.14,8.01-19.14,20.99s8.3,20.92,19.14,20.92ZM402.19,316.79h-4.96v-23.19h-26.88v23.19h-4.96v-49.57h4.96v22.27h26.88v-22.27h4.96v49.57ZM447.27,316.79l-4.33-11.77h-22.54l-4.33,11.77h-5.25l18.09-48.93h5.61l18.02,48.93h-5.25ZM498.5,316.79h-4.96l-27.44-41.7v41.7h-4.96v-49.57h4.96l27.44,41.63v-41.63h4.96v49.57ZM515.43,316.79h-4.96v-49.57h4.96v49.57ZM549.39,312.89c8.43,0,14.26-4.11,17.02-10.57h5.81c-3.54,9.36-11.77,14.89-22.83,14.89-13.75,0-24.26-10.35-24.26-25.24s10.5-25.32,24.26-25.32c11.06,0,19.29,5.53,22.83,15.03h-5.81c-2.76-6.6-8.58-10.71-17.02-10.71-10.85,0-19.14,8.01-19.14,20.99s8.3,20.92,19.14,20.92ZM615.81,316.79l-4.33-11.77h-22.54l-4.33,11.77h-5.24l18.08-48.93h5.61l18.02,48.93h-5.25ZM652.44,316.79h-22.76v-49.57h4.96v45.52h17.8v4.04ZM718.08,316.79l-6.73-6.88c-4.83,5.25-10.08,7.73-17.02,7.73-10.01,0-16.88-5.96-16.88-15.03,0-6.95,4.03-12.27,11.7-15.25-3.33-3.61-4.75-6.6-4.75-10.28,0-6.24,4.88-10.64,12.48-10.64,7.09,0,12.05,4.47,11.77,10.99h-4.96c.07-4.46-3.18-6.88-7.02-6.88-4.39,0-7.3,2.69-7.3,6.45,0,3.19,1.77,5.81,5.17,9.43l16.32,16.52c.92-1.28,1.77-2.69,2.69-4.26l4.54-7.58h5.32l-5.39,9.29c-1.28,2.2-2.55,4.18-3.83,5.95l10.35,10.43h-6.46ZM778.03,271.26h-20.91v18.51h18.79v4.11h-18.79v18.79h20.91v4.11h-25.88v-49.64h25.88v4.11ZM811.28,316.79h-22.76v-49.57h4.96v45.52h17.8v4.04ZM844.94,271.26h-20.91v18.51h18.79v4.11h-18.79v18.79h20.91v4.11h-25.88v-49.64h25.88v4.11ZM877.4,312.89c8.43,0,14.26-4.11,17.02-10.57h5.81c-3.54,9.36-11.77,14.89-22.83,14.89-13.75,0-24.26-10.35-24.26-25.24s10.5-25.32,24.26-25.32c11.06,0,19.29,5.53,22.83,15.03h-5.81c-2.76-6.6-8.58-10.71-17.02-10.71-10.85,0-19.14,8.01-19.14,20.99s8.3,20.92,19.14,20.92ZM939.77,271.33h-13.75v45.45h-4.96v-45.45h-13.83v-4.11h32.55v4.11ZM974.72,316.79l-12.27-20.71h-9.15v20.71h-4.96v-49.57h14.89c11.49,0,16.88,6.24,16.88,14.4,0,6.8-3.84,12.55-12.2,14.11l12.77,21.06h-5.95ZM995.61,316.79h-4.96v-49.57h4.96v49.57ZM1029.57,312.89c8.43,0,14.26-4.11,17.02-10.57h5.81c-3.54,9.36-11.77,14.89-22.83,14.89-13.75,0-24.26-10.35-24.26-25.24s10.5-25.32,24.26-25.32c11.06,0,19.29,5.53,22.83,15.03h-5.81c-2.76-6.6-8.58-10.71-17.02-10.71-10.85,0-19.14,8.01-19.14,20.99s8.3,20.92,19.14,20.92ZM1095.99,316.79l-4.33-11.77h-22.54l-4.33,11.77h-5.25l18.08-48.93h5.61l18.02,48.93h-5.25ZM1132.63,316.79h-22.76v-49.57h4.96v45.52h17.8v4.04Z"/>
          <polygon class="cls-1" points="421.87 300.9 441.45 300.9 431.66 274.1 421.87 300.9"/>
          <path class="cls-1" d="M682.41,302.46c0,6.24,4.89,10.85,11.91,10.85,5.6,0,9.78-2.13,13.75-6.74l-15.81-16.02c-6.74,2.48-9.86,6.45-9.86,11.91Z"/>
          <polygon class="cls-1" points="1070.6 300.9 1090.18 300.9 1080.39 274.1 1070.6 300.9"/>
        </g>
      </g>
    </g>
    <g>
      <path class="cls-1" d="M489.13,474.38c0,5.21-4.1,9.44-9.14,9.44s-9.14-4.23-9.14-9.44,4.1-9.44,9.14-9.44,9.14,4.23,9.14,9.44h0Z"/>
      <path class="cls-1" d="M242.63,483.86v-29.07c0-2.49-.1-6.28-2.92-9.14-1.71-1.68-4.47-2.82-7.06-2.82s-5.24,1.08-6.89,2.59c-3.43,3.09-3.36,7.46-3.36,10.72v27.73h-14.89v-27.99c0-6.22.27-12.67,6.45-19.16,4.81-5.04,10.82-7.36,18.92-7.36,9.04,0,15.49,3.19,18.99,7.09,4.97,5.58,5.58,13.14,5.58,19.42v27.99h-14.89.07Z"/>
      <polygon class="cls-1" points="403.91 430.09 419.87 430.09 419.87 483.82 403.91 483.82 403.91 430.09 403.91 430.09"/>
      <path class="cls-1" d="M420.98,418.22c0,5.18-4.07,9.38-9.07,9.38s-9.07-4.2-9.07-9.38,4.07-9.38,9.07-9.38,9.07,4.2,9.07,9.38h0Z"/>
      <path class="cls-1" d="M292.23,469.88c6.59,0,12.1-5.58,12.1-12.97s-5.51-13.48-12.67-13.48-12.87,6.08-12.87,13.27,5.61,13.17,13.44,13.17h0ZM304.26,477.87c-4.54,4.6-9.21,6.28-15.39,6.28s-11.73-2.08-16.27-6.28c-6.02-5.48-9.11-12.67-9.11-21.07,0-7.7,2.89-14.59,8.33-19.96,4.84-4.91,10.75-7.39,17.34-7.39s11.12,2.18,14.62,6.79v-25.31h15.29v72.93h-14.82v-5.98h0Z"/>
      <path class="cls-1" d="M439.43,467.32v.47c0,2.89,2.25,4.94,5.44,4.94s5.07-1.65,5.07-4.54c0-4.27-4.03-4.07-10.32-6.08-8.7-2.79-12.94-7.63-12.94-15.46,0-10.15,7.23-17.31,19.22-17.31,10.42,0,17.07,6.08,17.61,15.96h-13.41c-.57-3.39-1.78-4.84-4.4-4.84-2.89,0-4.6,1.75-4.6,4.27,0,3.56,3.09,4.44,8.23,5.88,10.32,2.89,15.46,6.96,15.46,15.56,0,10.45-7.96,17.98-20.16,17.98-11.26,0-18.18-6.28-19.22-16.8h13.95l.07-.03Z"/>
      <polygon class="cls-1" points="400.14 428.57 377.19 484.16 360.89 449.34 346 484.16 322.81 428.57 338.64 428.57 348.09 450.79 355.18 434.56 352.52 428.57 366.37 428.57 375.91 451.73 384.28 428.57 400.14 428.57 400.14 428.57"/>
      <path class="cls-1" d="M173.87,469.81c6.59,0,12.1-5.61,12.1-13.01s-5.51-13.51-12.7-13.51-12.9,6.08-12.9,13.31,5.61,13.21,13.48,13.21h.03ZM185.9,477.81c-4.57,4.6-9.21,6.28-15.39,6.28s-11.73-2.08-16.27-6.28c-6.02-5.51-9.11-12.7-9.11-21.1,0-7.7,2.92-14.59,8.33-20,4.84-4.91,10.75-7.39,17.34-7.39s11.16,2.18,14.62,6.79v-5.98h15.32v53.67h-14.82v-5.98h-.03Z"/>
      <g>
        <path class="cls-1" d="M44.86,468.73H15.62l-5.38,14.89H1l24.23-66.64h10.08l24.13,66.64h-9.24l-5.38-14.89h.03ZM42.33,461.61l-12.1-33.84-12.1,33.84h24.23-.03Z"/>
        <path class="cls-1" d="M111.3,435.8c3.97,3.86,5.95,9.48,5.95,16.77v31.05h-8.64v-29.81c0-5.24-1.31-9.28-3.93-12.06s-6.22-4.17-10.75-4.17-8.3,1.45-11.02,4.34c-2.72,2.89-4.1,7.09-4.1,12.6v29.14h-8.74v-52.69h8.74v7.49c1.75-2.69,4.1-4.77,7.06-6.25,2.99-1.48,6.25-2.22,9.85-2.22,6.42,0,11.59,1.95,15.56,5.81h.03Z"/>
      </g>
      <g>
        <path class="cls-1" d="M548.78,432.81c3.43,1.98,5.98,4.5,7.63,7.49v-9.61h8.84v53.84c0,4.81-1.04,9.07-3.09,12.84-2.05,3.76-4.97,6.69-8.8,8.8-3.83,2.12-8.27,3.16-13.31,3.16-6.92,0-12.7-1.65-17.31-4.91-4.6-3.26-7.33-7.73-8.17-13.38h8.64c.97,3.19,2.96,5.78,5.95,7.73,3.02,1.95,6.62,2.92,10.85,2.92,4.81,0,8.74-1.51,11.76-4.5,3.06-3.02,4.57-7.26,4.57-12.7v-11.06c-1.75,3.09-4.3,5.65-7.7,7.7-3.39,2.05-7.36,3.09-11.93,3.09s-8.94-1.14-12.74-3.46c-3.83-2.32-6.82-5.55-8.97-9.71-2.18-4.17-3.26-8.91-3.26-14.22s1.08-10.12,3.26-14.18c2.18-4.07,5.18-7.23,8.97-9.48s8.07-3.36,12.74-3.36,8.54,1.01,11.96,2.99h.1ZM554.03,446.55c-1.61-2.96-3.76-5.21-6.49-6.79-2.72-1.58-5.71-2.35-8.97-2.35s-6.25.77-8.94,2.32-4.84,3.8-6.45,6.72c-1.61,2.96-2.42,6.42-2.42,10.38s.81,7.56,2.42,10.52c1.61,2.99,3.76,5.24,6.45,6.82,2.69,1.58,5.68,2.35,8.94,2.35s6.25-.77,8.97-2.35c2.72-1.58,4.87-3.83,6.49-6.82,1.61-2.99,2.42-6.45,2.42-10.42s-.81-7.43-2.42-10.38Z"/>
        <path class="cls-1" d="M595.4,432.24c2.86-1.68,6.32-2.49,10.42-2.49v9.04h-2.32c-9.81,0-14.72,5.31-14.72,15.96v28.67h-8.74v-52.69h8.74v8.57c1.55-3.02,3.73-5.34,6.59-7.02l.03-.03Z"/>
        <path class="cls-1" d="M625.51,480.9c-4-2.25-7.16-5.44-9.41-9.58-2.29-4.13-3.43-8.94-3.43-14.38s1.18-10.15,3.5-14.28c2.32-4.13,5.55-7.29,9.58-9.51,4.03-2.22,8.57-3.33,13.54-3.33s9.51,1.11,13.54,3.33c4.03,2.22,7.23,5.38,9.58,9.48,2.35,4.1,3.5,8.87,3.5,14.32s-1.21,10.25-3.6,14.38c-2.39,4.13-5.65,7.33-9.75,9.58-4.1,2.25-8.64,3.36-13.64,3.36s-9.41-1.11-13.41-3.36h0ZM647.76,474.35c2.76-1.48,4.97-3.7,6.69-6.62,1.71-2.96,2.55-6.55,2.55-10.75s-.84-7.83-2.49-10.75c-1.68-2.96-3.83-5.14-6.55-6.59-2.69-1.45-5.61-2.15-8.74-2.15s-6.15.71-8.8,2.15c-2.65,1.45-4.81,3.63-6.39,6.59-1.61,2.96-2.42,6.55-2.42,10.75s.77,7.93,2.35,10.85c1.58,2.96,3.66,5.14,6.28,6.59s5.51,2.15,8.64,2.15,6.08-.74,8.84-2.22h.03Z"/>
        <path class="cls-1" d="M724.18,430.69v52.69h-8.74v-7.8c-1.68,2.69-4,4.81-6.96,6.28-2.96,1.48-6.25,2.25-9.85,2.25-4.1,0-7.8-.84-11.06-2.55-3.26-1.71-5.85-4.23-7.73-7.63-1.88-3.39-2.82-7.53-2.82-12.4v-30.85h8.64v29.71c0,5.18,1.31,9.17,3.93,11.96,2.62,2.79,6.22,4.17,10.75,4.17s8.37-1.45,11.06-4.34c2.69-2.89,4.03-7.09,4.03-12.6v-28.94h8.74v.03Z"/>
        <path class="cls-1" d="M755.5,432.88c3.43-2.02,7.43-3.02,11.96-3.02s8.94,1.11,12.74,3.36c3.8,2.25,6.82,5.41,9.01,9.48,2.18,4.07,3.26,8.8,3.26,14.18s-1.08,10.05-3.26,14.22c-2.18,4.17-5.18,7.39-9.01,9.71-3.8,2.32-8.07,3.46-12.74,3.46s-8.44-1.01-11.86-3.02-6.05-4.54-7.83-7.56v34.72h-8.74v-77.7h8.74v9.71c1.75-3.02,4.3-5.55,7.73-7.56v.03ZM781.11,446.49c-1.61-2.96-3.76-5.18-6.49-6.72s-5.71-2.32-8.97-2.32-6.18.77-8.91,2.35-4.91,3.83-6.55,6.82c-1.65,2.99-2.45,6.42-2.45,10.35s.81,7.46,2.45,10.42c1.65,2.99,3.8,5.24,6.55,6.82,2.72,1.58,5.68,2.35,8.91,2.35s6.25-.77,8.97-2.35c2.72-1.58,4.87-3.83,6.49-6.82,1.61-2.99,2.42-6.49,2.42-10.52s-.81-7.43-2.42-10.38Z"/>
        <path class="cls-1" d="M829.67,442.69c2.18-4.07,5.21-7.23,9.07-9.48,3.86-2.25,8.3-3.36,13.31-3.36,6.49,0,11.8,1.58,16,4.7s6.96,7.49,8.3,13.07h-9.41c-.91-3.19-2.65-5.75-5.24-7.6-2.59-1.85-5.81-2.79-9.68-2.79-5.01,0-9.04,1.71-12.1,5.14-3.09,3.43-4.6,8.3-4.6,14.55s1.55,11.26,4.6,14.72c3.09,3.46,7.12,5.18,12.1,5.18,3.83,0,7.06-.91,9.61-2.69,2.55-1.78,4.34-4.37,5.28-7.7h9.41c-1.41,5.38-4.23,9.71-8.47,12.94-4.23,3.23-9.51,4.84-15.86,4.84-5.01,0-9.44-1.11-13.31-3.36-3.86-2.25-6.92-5.41-9.07-9.51-2.18-4.1-3.26-8.91-3.26-14.42s1.08-10.22,3.26-14.28l.07.03Z"/>
        <path class="cls-1" d="M897.59,480.9c-4-2.25-7.16-5.44-9.41-9.58-2.29-4.13-3.43-8.94-3.43-14.38s1.18-10.15,3.5-14.28c2.35-4.13,5.55-7.29,9.58-9.51,4.03-2.22,8.57-3.33,13.54-3.33s9.51,1.11,13.54,3.33c4.03,2.22,7.23,5.38,9.58,9.48,2.35,4.1,3.5,8.87,3.5,14.32s-1.21,10.25-3.6,14.38c-2.39,4.13-5.65,7.33-9.75,9.58-4.1,2.25-8.64,3.36-13.64,3.36s-9.41-1.11-13.41-3.36h0ZM919.83,474.35c2.76-1.48,4.97-3.7,6.69-6.62,1.71-2.96,2.55-6.55,2.55-10.75s-.84-7.83-2.49-10.75c-1.68-2.96-3.83-5.14-6.55-6.59-2.69-1.45-5.61-2.15-8.74-2.15s-6.15.71-8.8,2.15c-2.65,1.45-4.81,3.63-6.39,6.59-1.61,2.96-2.42,6.55-2.42,10.75s.77,7.93,2.35,10.85c1.58,2.96,3.66,5.14,6.28,6.59,2.62,1.45,5.51,2.15,8.64,2.15s6.08-.74,8.84-2.22h.03Z"/>
        <path class="cls-1" d="M1023.88,432.3c3.19,1.71,5.75,4.23,7.6,7.63,1.85,3.39,2.79,7.53,2.79,12.4v31.05h-8.64v-29.81c0-5.24-1.31-9.28-3.9-12.06-2.59-2.79-6.12-4.17-10.52-4.17s-8.17,1.45-10.85,4.37c-2.69,2.92-4.03,7.12-4.03,12.64v29.04h-8.64v-29.81c0-5.24-1.31-9.28-3.9-12.06-2.59-2.79-6.12-4.17-10.52-4.17s-8.17,1.45-10.85,4.37c-2.69,2.92-4.03,7.12-4.03,12.64v29.04h-8.74v-52.69h8.74v7.6c1.75-2.76,4.07-4.87,6.96-6.35,2.92-1.48,6.15-2.22,9.68-2.22,4.44,0,8.33,1.01,11.73,2.99,3.39,1.98,5.91,4.91,7.6,8.74,1.48-3.73,3.9-6.59,7.29-8.64,3.39-2.05,7.19-3.09,11.36-3.09s7.76.84,10.96,2.55l-.07.03Z"/>
        <path class="cls-1" d="M1065.08,432.88c3.43-2.02,7.43-3.02,11.96-3.02s8.94,1.11,12.74,3.36c3.8,2.25,6.82,5.41,9.01,9.48,2.18,4.07,3.26,8.8,3.26,14.18s-1.08,10.05-3.26,14.22c-2.18,4.17-5.18,7.39-9.01,9.71-3.8,2.32-8.07,3.46-12.74,3.46s-8.44-1.01-11.86-3.02-6.05-4.54-7.83-7.56v34.72h-8.74v-77.7h8.74v9.71c1.75-3.02,4.3-5.55,7.73-7.56v.03ZM1090.69,446.49c-1.61-2.96-3.76-5.18-6.49-6.72s-5.71-2.32-8.97-2.32-6.18.77-8.91,2.35-4.91,3.83-6.55,6.82c-1.65,2.99-2.45,6.42-2.45,10.35s.81,7.46,2.45,10.42c1.65,2.99,3.8,5.24,6.55,6.82,2.72,1.58,5.68,2.35,8.91,2.35s6.25-.77,8.97-2.35c2.72-1.58,4.87-3.83,6.49-6.82,1.61-2.99,2.42-6.49,2.42-10.52s-.81-7.43-2.42-10.38Z"/>
        <path class="cls-1" d="M1113.57,442.69c2.18-4.07,5.18-7.23,8.97-9.48,3.8-2.25,8.07-3.36,12.74-3.36s8.6,1.01,12.03,2.99c3.39,1.98,5.91,4.5,7.6,7.49v-9.61h8.84v52.69h-8.84v-9.81c-1.75,3.09-4.3,5.61-7.73,7.63-3.43,2.02-7.43,3.02-11.96,3.02s-8.91-1.14-12.7-3.46-6.75-5.55-8.94-9.71c-2.18-4.17-3.26-8.91-3.26-14.22s1.08-10.12,3.26-14.18h0ZM1152.52,446.55c-1.61-2.96-3.76-5.21-6.49-6.79s-5.71-2.35-9.01-2.35-6.25.77-8.94,2.32c-2.69,1.55-4.84,3.8-6.45,6.72-1.61,2.96-2.42,6.42-2.42,10.38s.81,7.56,2.42,10.52c1.61,2.99,3.76,5.24,6.45,6.82,2.69,1.58,5.68,2.35,8.94,2.35s6.25-.77,9.01-2.35c2.72-1.58,4.87-3.83,6.49-6.82,1.61-2.99,2.42-6.45,2.42-10.42s-.81-7.43-2.42-10.38Z"/>
        <path class="cls-1" d="M1219.81,435.56c3.97,3.86,5.95,9.48,5.95,16.77v31.05h-8.64v-29.81c0-5.24-1.31-9.28-3.93-12.06s-6.22-4.17-10.75-4.17-8.3,1.45-11.02,4.34c-2.72,2.89-4.1,7.09-4.1,12.6v29.14h-8.74v-52.69h8.74v7.49c1.75-2.69,4.1-4.77,7.06-6.25,2.99-1.48,6.25-2.22,9.85-2.22,6.42,0,11.59,1.95,15.56,5.81h.03Z"/>
        <path class="cls-1" d="M1285.47,430.69l-31.72,77.5h-9.04l10.38-25.37-21.24-52.12h9.71l16.53,42.68,16.33-42.68h9.04Z"/>
      </g>
    </g>
  </g>
</svg>